<?xml version="1.0" encoding="iso-8859-1"?>
<!-- Generator: Adobe Illustrator 19.0.0, SVG Export Plug-In . SVG Version: 6.00 Build 0)  -->
<svg version="1.1" id="Capa_1" xmlns="http://www.w3.org/2000/svg" xmlns:xlink="http://www.w3.org/1999/xlink" x="0px" y="0px"
	 viewBox="0 0 512 512" style="enable-background:new 0 0 512 512;" xml:space="preserve">
<path style="fill:#67e4e5;" d="M320,85.333h64c5.891,0,10.667-4.776,10.667-10.667v-64C394.667,4.776,389.891,0,384,0h-64
	c-64.772,0.071-117.263,52.561-117.333,117.333V192H128c-5.891,0-10.667,4.776-10.667,10.667v64c0,5.891,4.776,10.667,10.667,10.667
	h74.667v224c0,5.891,4.776,10.667,10.667,10.667h64c5.891,0,10.667-4.776,10.667-10.667v-224h74.667
	c4.589-0.003,8.662-2.942,10.112-7.296l21.333-64c1.862-5.589-1.16-11.629-6.749-13.491c-1.084-0.361-2.22-0.546-3.363-0.547h-96
	v-74.667C288,99.66,302.327,85.333,320,85.333z"/>
<g>
</g>
<g>
</g>
<g>
</g>
<g>
</g>
<g>
</g>
<g>
</g>
<g>
</g>
<g>
</g>
<g>
</g>
<g>
</g>
<g>
</g>
<g>
</g>
<g>
</g>
<g>
</g>
<g>
</g>
</svg>
