<?xml version="1.0" encoding="iso-8859-1"?>
<!-- Generator: Adobe Illustrator 19.0.0, SVG Export Plug-In . SVG Version: 6.00 Build 0)  -->
<svg version="1.1" id="Capa_1" xmlns="http://www.w3.org/2000/svg" xmlns:xlink="http://www.w3.org/1999/xlink" x="0px" y="0px"
	 viewBox="0 0 512.001 512.001" style="enable-background:new 0 0 512.001 512.001;" xml:space="preserve">
<path style="fill:#67e4e5" d="M197.778,76.425l-63.604-63.602c-16.798-17.098-46.798-17.098-63.896,0L60.075,23.325
	c-0.363,0.363-11.096,10.932-11.096,11.4c-5.402,5.7-5.105,15,0.597,20.4l105.901,105.899c5.401,6.006,15.597,6.002,21.002,0
	l21.299-21.299C214.89,123.203,215.933,93.951,197.778,76.425z"/>
<path style="fill:#67e4e5;" d="M498.723,377.978l-63.6-63.6c-16.798-17.098-46.498-17.098-63.3,0l-10.499,10.801l-10.8,10.499
	c-5.999,5.7-5.999,15.3,0,21l106.201,106.199c5.184,5.772,15.059,6.236,21.299,0l10.199-10.499l10.499-10.8
	C516.426,424.18,516.426,395.379,498.723,377.978z"/>
<path style="fill:#67e4e5;" d="M488.224,452.38l-10.199,10.499c-81.899,73.801-177.601,56.1-231.599,1.8L47.477,265.125
	c-63.303-63.001-63.303-165.901,0-229.2c0.3,0,2.699-2.401,2.699-2.699l9.899-9.901l126.899,126.899l-5.999,6.301l-4.497,4.499
	c-9.602,10.501-17.402,17.1-17.402,31.8c0,9.3,3.6,17.701,9.902,24.3l50.098,50.101l75.345,75.954c12.902,12.9,35.402,12.9,48.303,0
	l7.8-7.5l10.8-10.499L488.224,452.38z"/>
<path style="fill:#67e4e5;" d="M361.324,325.18l126.899,127.2l-10.199,10.499c-81.899,73.801-177.601,56.1-231.599,1.8
	L134.474,352.124c0-0.298,0-0.298,0-0.298l84.602-84.6l75.345,75.954c12.902,12.9,35.402,12.9,48.303,0l7.8-7.5L361.324,325.18z"/>
<g>
</g>
<g>
</g>
<g>
</g>
<g>
</g>
<g>
</g>
<g>
</g>
<g>
</g>
<g>
</g>
<g>
</g>
<g>
</g>
<g>
</g>
<g>
</g>
<g>
</g>
<g>
</g>
<g>
</g>
</svg>
